<svg width="29" height="28" viewBox="0 0 29 28" fill="none" xmlns="http://www.w3.org/2000/svg">
<path d="M14.5 8.16663V24.5" stroke="#15803D" stroke-width="2" stroke-linecap="round" stroke-linejoin="round"/>
<path d="M4.00001 21C3.69059 21 3.39384 20.8771 3.17505 20.6583C2.95626 20.4395 2.83334 20.1428 2.83334 19.8333V4.66667C2.83334 4.35725 2.95626 4.0605 3.17505 3.84171C3.39384 3.62292 3.69059 3.5 4.00001 3.5H9.83334C11.071 3.5 12.258 3.99167 13.1332 4.86683C14.0083 5.742 14.5 6.92899 14.5 8.16667C14.5 6.92899 14.9917 5.742 15.8668 4.86683C16.742 3.99167 17.929 3.5 19.1667 3.5H25C25.3094 3.5 25.6062 3.62292 25.825 3.84171C26.0438 4.0605 26.1667 4.35725 26.1667 4.66667V19.8333C26.1667 20.1428 26.0438 20.4395 25.825 20.6583C25.6062 20.8771 25.3094 21 25 21H18C17.0718 21 16.1815 21.3687 15.5251 22.0251C14.8688 22.6815 14.5 23.5717 14.5 24.5C14.5 23.5717 14.1313 22.6815 13.4749 22.0251C12.8185 21.3687 11.9283 21 11 21H4.00001Z" stroke="#15803D" stroke-width="2" stroke-linecap="round" stroke-linejoin="round"/>
</svg>
