<svg width="33" height="32" viewBox="0 0 33 32" fill="none" xmlns="http://www.w3.org/2000/svg">
<path d="M24.5 2.66666H8.49998C7.02722 2.66666 5.83331 3.86056 5.83331 5.33332V26.6667C5.83331 28.1394 7.02722 29.3333 8.49998 29.3333H24.5C25.9727 29.3333 27.1666 28.1394 27.1666 26.6667V5.33332C27.1666 3.86056 25.9727 2.66666 24.5 2.66666Z" stroke="#15803D" stroke-width="2" stroke-linecap="round" stroke-linejoin="round"/>
<path d="M12.5 29.3333V24H20.5V29.3333" stroke="#15803D" stroke-width="2" stroke-linecap="round" stroke-linejoin="round"/>
<path d="M11.1667 8H11.18" stroke="#15803D" stroke-width="2" stroke-linecap="round" stroke-linejoin="round"/>
<path d="M21.8333 8H21.8466" stroke="#15803D" stroke-width="2" stroke-linecap="round" stroke-linejoin="round"/>
<path d="M16.5 8H16.5133" stroke="#15803D" stroke-width="2" stroke-linecap="round" stroke-linejoin="round"/>
<path d="M16.5 13.3333H16.5133" stroke="#15803D" stroke-width="2" stroke-linecap="round" stroke-linejoin="round"/>
<path d="M16.5 18.6667H16.5133" stroke="#15803D" stroke-width="2" stroke-linecap="round" stroke-linejoin="round"/>
<path d="M21.8333 13.3333H21.8466" stroke="#15803D" stroke-width="2" stroke-linecap="round" stroke-linejoin="round"/>
<path d="M21.8333 18.6667H21.8466" stroke="#15803D" stroke-width="2" stroke-linecap="round" stroke-linejoin="round"/>
<path d="M11.1667 13.3333H11.18" stroke="#15803D" stroke-width="2" stroke-linecap="round" stroke-linejoin="round"/>
<path d="M11.1667 18.6667H11.18" stroke="#15803D" stroke-width="2" stroke-linecap="round" stroke-linejoin="round"/>
</svg>
