<svg width="29" height="28" viewBox="0 0 29 28" fill="none" xmlns="http://www.w3.org/2000/svg">
<path d="M25.49 12.7423C25.6988 12.6502 25.8761 12.4988 25.9997 12.3069C26.1234 12.115 26.1881 11.8911 26.1857 11.6628C26.1833 11.4346 26.1141 11.212 25.9865 11.0227C25.8589 10.8335 25.6785 10.6858 25.4678 10.598L15.4683 6.0433C15.1643 5.90464 14.8341 5.83289 14.5 5.83289C14.1659 5.83289 13.8356 5.90464 13.5317 6.0433L3.53333 10.5933C3.32562 10.6843 3.14893 10.8338 3.02485 11.0236C2.90078 11.2134 2.8347 11.4352 2.8347 11.662C2.8347 11.8887 2.90078 12.1106 3.02485 12.3004C3.14893 12.4901 3.32562 12.6397 3.53333 12.7306L13.5317 17.29C13.8356 17.4286 14.1659 17.5004 14.5 17.5004C14.8341 17.5004 15.1643 17.4286 15.4683 17.29L25.49 12.7423Z" stroke="#15803D" stroke-width="2" stroke-linecap="round" stroke-linejoin="round"/>
<path d="M26.1667 11.6666V18.6666" stroke="#15803D" stroke-width="2" stroke-linecap="round" stroke-linejoin="round"/>
<path d="M7.5 14.5834V18.6667C7.5 19.595 8.2375 20.4852 9.55025 21.1416C10.863 21.798 12.6435 22.1667 14.5 22.1667C16.3565 22.1667 18.137 21.798 19.4497 21.1416C20.7625 20.4852 21.5 19.595 21.5 18.6667V14.5834" stroke="#15803D" stroke-width="2" stroke-linecap="round" stroke-linejoin="round"/>
</svg>
