<svg width="29" height="28" viewBox="0 0 29 28" fill="none" xmlns="http://www.w3.org/2000/svg">
<path d="M18 2.33337H7.5C6.88116 2.33337 6.28767 2.57921 5.85008 3.01679C5.4125 3.45438 5.16667 4.04787 5.16667 4.66671V23.3334C5.16667 23.9522 5.4125 24.5457 5.85008 24.9833C6.28767 25.4209 6.88116 25.6667 7.5 25.6667H21.5C22.1188 25.6667 22.7123 25.4209 23.1499 24.9833C23.5875 24.5457 23.8333 23.9522 23.8333 23.3334V8.16671L18 2.33337Z" stroke="#15803D" stroke-width="2" stroke-linecap="round" stroke-linejoin="round"/>
<path d="M16.8333 2.33337V7.00004C16.8333 7.61888 17.0792 8.21237 17.5168 8.64996C17.9543 9.08754 18.5478 9.33337 19.1667 9.33337H23.8333" stroke="#15803D" stroke-width="2" stroke-linecap="round" stroke-linejoin="round"/>
<path d="M12.1667 10.5H9.83333" stroke="#15803D" stroke-width="2" stroke-linecap="round" stroke-linejoin="round"/>
<path d="M19.1667 15.1666H9.83333" stroke="#15803D" stroke-width="2" stroke-linecap="round" stroke-linejoin="round"/>
<path d="M19.1667 19.8334H9.83333" stroke="#15803D" stroke-width="2" stroke-linecap="round" stroke-linejoin="round"/>
</svg>
