<svg width="33" height="32" viewBox="0 0 33 32" fill="none" xmlns="http://www.w3.org/2000/svg">
<path d="M21.8333 28V25.3333C21.8333 23.9188 21.2714 22.5623 20.2712 21.5621C19.271 20.5619 17.9145 20 16.5 20H8.5C7.08551 20 5.72896 20.5619 4.72876 21.5621C3.72857 22.5623 3.16666 23.9188 3.16666 25.3333V28" stroke="#15803D" stroke-width="2" stroke-linecap="round" stroke-linejoin="round"/>
<path d="M21.8333 4.17065C22.977 4.46715 23.9899 5.13501 24.7129 6.0694C25.436 7.0038 25.8283 8.15184 25.8283 9.33332C25.8283 10.5148 25.436 11.6628 24.7129 12.5972C23.9899 13.5316 22.977 14.1995 21.8333 14.496" stroke="#15803D" stroke-width="2" stroke-linecap="round" stroke-linejoin="round"/>
<path d="M29.8333 28V25.3333C29.8325 24.1516 29.4391 23.0037 28.7152 22.0698C27.9912 21.1358 26.9775 20.4688 25.8333 20.1733" stroke="#15803D" stroke-width="2" stroke-linecap="round" stroke-linejoin="round"/>
<path d="M12.5 14.6667C15.4455 14.6667 17.8333 12.2789 17.8333 9.33333C17.8333 6.38781 15.4455 4 12.5 4C9.55448 4 7.16666 6.38781 7.16666 9.33333C7.16666 12.2789 9.55448 14.6667 12.5 14.6667Z" stroke="#15803D" stroke-width="2" stroke-linecap="round" stroke-linejoin="round"/>
</svg>
