<?xml version="1.0" encoding="utf-8"?>
<svg xmlns="http://www.w3.org/2000/svg" viewBox="64.9534 74.6402 368.8202 468.9296" width="368.8202px" height="468.9296px">
  <defs>
    <style type="text/css">
	.st0{fill:#231F20;}
	.st1{fill:#2F9E41;}
	.st2{fill:#D32127;}
</style>
  </defs>
  <g transform="matrix(1.606359839439392, 0, 0, 1.515120029449463, -162.02520751953125, 44.337799072265625)" style="">
    <g>
      <path class="st1" d="M291.4,83.4c0,3.6-3,6.6-6.5,6.6h-53.4c-3.6,0-6.5-3-6.5-6.6V30.1c0-3.6,3-6.5,6.5-6.5h53.4 c3.6,0,6.5,3,6.5,6.5V83.4z"/>
      <path class="st1" d="M370.9,83.4c0,3.6-3,6.6-6.5,6.6H311c-3.6,0-6.6-3-6.6-6.6V30.1c0-3.6,3-6.5,6.6-6.5h53.4 c3.6,0,6.5,3,6.5,6.5V83.4z"/>
      <path class="st1" d="M370.9,243c0,3.6-3,6.5-6.5,6.5H311c-3.6,0-6.6-3-6.6-6.5v-53.3c0-3.6,3-6.6,6.6-6.6h53.4 c3.6,0,6.5,3,6.5,6.6V243z"/>
      <path class="st1" d="M211.4,162.9c0,3.6-3,6.5-6.6,6.5h-53.4c-3.6,0-6.6-3-6.6-6.5v-53.3c0-3.5,3-6.5,6.6-6.5h53.4 c3.6,0,6.6,3,6.6,6.5V162.9z"/>
      <path class="st1" d="M291.4,162.9c0,3.6-3,6.5-6.5,6.5h-53.4c-3.6,0-6.5-3-6.5-6.5v-53.3c0-3.5,3-6.5,6.5-6.5h53.4 c3.6,0,6.5,3,6.5,6.5V162.9z"/>
      <path class="st1" d="M211.4,243c0,3.6-3,6.5-6.6,6.5h-53.4c-3.6,0-6.6-3-6.6-6.5v-53.3c0-3.6,3-6.6,6.6-6.6h53.4 c3.6,0,6.6,3,6.6,6.6V243z"/>
      <path class="st1" d="M291.4,243c0,3.6-3,6.5-6.5,6.5h-53.4c-3.6,0-6.5-3-6.5-6.5v-53.3c0-3.6,3-6.6,6.5-6.6h53.4 c3.6,0,6.5,3,6.5,6.6V243z"/>
      <path class="st1" d="M211.4,323c0,3.6-3,6.5-6.6,6.5h-53.4c-3.6,0-6.6-2.9-6.6-6.5v-53.4c0-3.6,3-6.6,6.6-6.6h53.4 c3.6,0,6.6,3,6.6,6.6V323z"/>
      <path class="st1" d="M291.4,323c0,3.6-3,6.5-6.5,6.5h-53.4c-3.6,0-6.5-2.9-6.5-6.5v-53.4c0-3.6,3-6.6,6.5-6.6h53.4 c3.6,0,6.5,3,6.5,6.6V323z"/>
      <path class="st2" d="M214.9,56.8c0,20.2-16.6,36.8-36.8,36.8c-20.2,0-36.8-16.6-36.8-36.8c0-20.2,16.6-36.8,36.8-36.8 C198.3,20,214.9,36.6,214.9,56.8"/>
    </g>
  </g>
</svg>
