<?xml version="1.0" encoding="utf-8"?>
<!-- Generator: Adobe Illustrator 23.1.1, SVG Export Plug-In . SVG Version: 6.00 Build 0)  -->
<svg version="1.1" id="Camada_1" xmlns="http://www.w3.org/2000/svg" xmlns:xlink="http://www.w3.org/1999/xlink" x="0px" y="0px"
	 viewBox="0 0 518 622" style="enable-background:new 0 0 518 622;" xml:space="preserve">
<style type="text/css">
	.st0{fill:#231F20;}
	.st1{fill:#2F9E41;}
	.st2{fill:#D32127;}
</style>
<g>
	<g>
		<path class="st0" d="M112.1,580.6v20.8h-5.8v-49.9H120c6.1,0,10.7,1.2,13.6,3.5c2.9,2.4,4.4,5.8,4.4,10.6
			c0,6.6-3.3,11.1-10.1,13.4l13.6,22.5h-6.8l-12.1-20.8H112.1z M112.1,575.6h8c4.1,0,7.1-0.9,9.1-2.5c1.9-1.6,2.9-4,2.9-7.3
			c0-3.4-1-5.7-3-7.2c-2-1.4-5.1-2.2-9.4-2.2h-7.6V575.6z"/>
		<path class="st0" d="M181.2,582.6c0,6.1-1.5,10.9-4.6,14.3c-3.1,3.5-7.3,5.1-12.8,5.1c-3.4,0-6.3-0.8-8.9-2.3
			c-2.7-1.6-4.7-3.9-6-6.8c-1.4-3-2.1-6.4-2.1-10.3c0-6.1,1.5-10.8,4.6-14.3c3-3.4,7.3-5.1,12.8-5.1c5.2,0,9.4,1.8,12.5,5.2
			C179.7,572,181.2,576.7,181.2,582.6 M152.6,582.6c0,4.8,0.9,8.5,2.9,10.9c1.9,2.5,4.7,3.8,8.5,3.8c3.7,0,6.5-1.2,8.5-3.7
			c2-2.5,2.9-6.2,2.9-11c0-4.7-1-8.4-2.9-10.8c-1.9-2.5-4.8-3.7-8.5-3.7c-3.7,0-6.5,1.2-8.4,3.6
			C153.5,574.1,152.6,577.8,152.6,582.6"/>
		<path class="st0" d="M216.8,601.4v-24.2c0-3-0.7-5.3-2.1-6.8c-1.4-1.5-3.6-2.2-6.5-2.2c-3.9,0-6.8,1-8.6,3.1
			c-1.8,2.1-2.7,5.6-2.7,10.5v19.6h-5.7v-37.4h4.6l0.9,5.1h0.3c1.2-1.9,2.8-3.3,4.9-4.3c2.1-1,4.5-1.5,7-1.5c4.5,0,7.9,1.1,10.2,3.3
			c2.3,2.2,3.4,5.7,3.4,10.5v24.4H216.8z"/>
		<path class="st0" d="M259.8,596.3h-0.3c-2.7,3.8-6.6,5.7-11.8,5.7c-5,0-8.7-1.6-11.5-5c-2.7-3.3-4.1-8.1-4.1-14.3
			c0-6.1,1.3-10.9,4.1-14.4c2.7-3.4,6.5-5.1,11.4-5.1c5.1,0,9,1.9,11.7,5.5h0.4l-0.2-2.7l-0.1-2.6v-15.2h5.6v53.2h-4.6L259.8,596.3z
			 M248.4,597.3c3.9,0,6.7-1.1,8.4-3.2c1.8-2.2,2.7-5.5,2.7-10.2v-1.2c0-5.2-0.9-9.1-2.7-11.3c-1.8-2.2-4.6-3.3-8.5-3.3
			c-3.3,0-5.9,1.3-7.7,3.9c-1.8,2.5-2.6,6.2-2.6,10.9c0,4.9,0.9,8.5,2.6,10.9C242.4,596,245,597.3,248.4,597.3"/>
		<path class="st0" d="M309.6,582.6c0,6.1-1.5,10.9-4.6,14.3c-3.1,3.5-7.4,5.1-12.7,5.1c-3.4,0-6.4-0.8-9-2.3
			c-2.6-1.6-4.6-3.9-6-6.8c-1.5-3-2.1-6.4-2.1-10.3c0-6.1,1.5-10.8,4.6-14.3c3.1-3.4,7.3-5.1,12.7-5.1c5.2,0,9.4,1.8,12.5,5.2
			C308.1,572,309.6,576.7,309.6,582.6 M280.8,558.2c2.9-3.1,4.9-5.4,6.1-6.8c1.2-1.5,2-2.7,2.5-3.6h5.7c0.5,0.9,1.4,2.2,2.7,3.7
			c1.3,1.5,3.3,3.8,6.2,6.7v0.7h-4.1c-2-1.2-4.5-3.3-7.5-6.3c-3.1,3-5.6,5.1-7.5,6.3h-3.9V558.2z M281,582.6c0,4.8,0.9,8.5,2.8,10.9
			c1.9,2.5,4.7,3.8,8.5,3.8c3.7,0,6.5-1.2,8.4-3.7c2-2.5,2.9-6.2,2.9-11c0-4.7-1-8.4-2.9-10.8c-1.9-2.5-4.7-3.7-8.5-3.7
			c-3.8,0-6.5,1.2-8.4,3.6C281.9,574.1,281,577.8,281,582.6"/>
		<path class="st0" d="M345.2,601.4v-24.2c0-3-0.7-5.3-2.1-6.8c-1.4-1.5-3.5-2.2-6.5-2.2c-3.9,0-6.8,1-8.6,3.1
			c-1.8,2.1-2.8,5.6-2.8,10.5v19.6h-5.7v-37.4h4.6l0.9,5.1h0.3c1.1-1.9,2.8-3.3,4.9-4.3c2.1-1,4.5-1.5,7-1.5c4.5,0,7.9,1.1,10.2,3.3
			c2.3,2.2,3.4,5.7,3.4,10.5v24.4H345.2z"/>
		<path class="st0" d="M362.1,553.7c0-1.2,0.3-2.2,0.9-2.8c0.6-0.6,1.4-0.9,2.4-0.9c0.9,0,1.7,0.3,2.4,0.9c0.6,0.7,1,1.6,1,2.8
			c0,1.3-0.3,2.3-1,2.9c-0.7,0.6-1.5,0.9-2.4,0.9c-1,0-1.8-0.3-2.4-0.9C362.4,556,362.1,555,362.1,553.7 M368.3,601.4h-5.7v-37.4
			h5.7V601.4z"/>
		<path class="st0" d="M403.4,601.4l-1.2-5.3H402c-1.9,2.3-3.7,3.9-5.6,4.7c-1.9,0.8-4.3,1.2-7,1.2c-3.7,0-6.6-0.9-8.7-2.8
			c-2.1-2-3.2-4.7-3.2-8.2c0-7.5,6.1-11.5,18.2-11.8l6.4-0.2v-2.3c0-2.9-0.6-5.1-1.9-6.5c-1.2-1.4-3.3-2.1-6.1-2.1
			c-3.1,0-6.6,0.9-10.6,2.8l-1.8-4.4c1.9-1,3.9-1.8,6.1-2.3c2.2-0.6,4.4-0.9,6.6-0.9c4.5,0,7.8,1,9.9,3c2.2,2,3.3,5.2,3.3,9.5v25.6
			H403.4z M390.6,597.4c3.6,0,6.3-1,8.4-2.9c2-1.9,3-4.7,3-8.1V583l-5.7,0.2c-4.5,0.2-7.8,0.9-9.8,2.1c-2,1.2-3,3.2-3,5.8
			c0,2,0.6,3.6,1.8,4.7C386.6,596.8,388.3,597.4,390.6,597.4"/>
		<path class="st1" d="M291.4,83.4c0,3.6-3,6.6-6.5,6.6h-53.4c-3.6,0-6.5-3-6.5-6.6V30.1c0-3.6,3-6.5,6.5-6.5h53.4
			c3.6,0,6.5,3,6.5,6.5V83.4z"/>
		<path class="st1" d="M370.9,83.4c0,3.6-3,6.6-6.5,6.6H311c-3.6,0-6.6-3-6.6-6.6V30.1c0-3.6,3-6.5,6.6-6.5h53.4
			c3.6,0,6.5,3,6.5,6.5V83.4z"/>
		<path class="st1" d="M370.9,243c0,3.6-3,6.5-6.5,6.5H311c-3.6,0-6.6-3-6.6-6.5v-53.3c0-3.6,3-6.6,6.6-6.6h53.4
			c3.6,0,6.5,3,6.5,6.6V243z"/>
		<path class="st1" d="M211.4,162.9c0,3.6-3,6.5-6.6,6.5h-53.4c-3.6,0-6.6-3-6.6-6.5v-53.3c0-3.5,3-6.5,6.6-6.5h53.4
			c3.6,0,6.6,3,6.6,6.5V162.9z"/>
		<path class="st1" d="M291.4,162.9c0,3.6-3,6.5-6.5,6.5h-53.4c-3.6,0-6.5-3-6.5-6.5v-53.3c0-3.5,3-6.5,6.5-6.5h53.4
			c3.6,0,6.5,3,6.5,6.5V162.9z"/>
		<path class="st1" d="M211.4,243c0,3.6-3,6.5-6.6,6.5h-53.4c-3.6,0-6.6-3-6.6-6.5v-53.3c0-3.6,3-6.6,6.6-6.6h53.4
			c3.6,0,6.6,3,6.6,6.6V243z"/>
		<path class="st1" d="M291.4,243c0,3.6-3,6.5-6.5,6.5h-53.4c-3.6,0-6.5-3-6.5-6.5v-53.3c0-3.6,3-6.6,6.5-6.6h53.4
			c3.6,0,6.5,3,6.5,6.6V243z"/>
		<path class="st1" d="M211.4,323c0,3.6-3,6.5-6.6,6.5h-53.4c-3.6,0-6.6-2.9-6.6-6.5v-53.4c0-3.6,3-6.6,6.6-6.6h53.4
			c3.6,0,6.6,3,6.6,6.6V323z"/>
		<path class="st1" d="M291.4,323c0,3.6-3,6.5-6.5,6.5h-53.4c-3.6,0-6.5-2.9-6.5-6.5v-53.4c0-3.6,3-6.6,6.5-6.6h53.4
			c3.6,0,6.5,3,6.5,6.6V323z"/>
		<path class="st2" d="M214.9,56.8c0,20.2-16.6,36.8-36.8,36.8c-20.2,0-36.8-16.6-36.8-36.8c0-20.2,16.6-36.8,36.8-36.8
			C198.3,20,214.9,36.6,214.9,56.8"/>
		<path class="st0" d="M106.9,442.3H89.1l-28.8-50.1h-0.4c0.6,8.8,0.9,15.1,0.9,18.9v31.2H48.1v-66.3h17.8l28.8,49.6H95
			c-0.5-8.6-0.7-14.7-0.7-18.3v-31.3h12.6V442.3z"/>
		<path class="st0" d="M162.8,423.9c0,6-2.2,10.7-6.5,14.2c-4.3,3.4-10.3,5.1-18,5.1c-7.1,0-13.3-1.3-18.8-4v-13.1
			c4.5,2,8.2,3.5,11.4,4.3c3.1,0.8,5.9,1.2,8.5,1.2c3.1,0,5.5-0.6,7.1-1.8c1.6-1.2,2.5-2.9,2.5-5.3c0-1.3-0.4-2.4-1.1-3.4
			c-0.7-1-1.8-2-3.2-3c-1.4-0.9-4.3-2.4-8.6-4.5c-4-1.9-7.1-3.7-9.2-5.5c-2-1.8-3.6-3.7-4.8-6.1c-1.2-2.3-1.8-5.1-1.8-8.1
			c0-5.9,2-10.5,6-13.9c4-3.4,9.4-5,16.4-5c3.5,0,6.7,0.4,9.9,1.2c3.1,0.8,6.4,1.9,9.8,3.4l-4.5,10.9c-3.5-1.4-6.5-2.4-8.8-3
			c-2.3-0.6-4.6-0.8-6.8-0.8c-2.6,0-4.7,0.6-6.1,1.8c-1.4,1.3-2.1,2.9-2.1,4.9c0,1.2,0.3,2.4,0.8,3.2c0.6,0.9,1.5,1.8,2.8,2.7
			c1.2,0.9,4.2,2.4,8.9,4.6c6.2,3,10.5,5.9,12.7,8.9C161.7,415.9,162.8,419.5,162.8,423.9"/>
		<polygon class="st0" points="200.9,442.3 186.8,442.3 186.8,387.7 168.8,387.7 168.8,376.1 218.9,376.1 218.9,387.7 200.9,387.7 
					"/>
		<rect x="229.1" y="376.1" class="st0" width="14" height="66.3"/>
		<rect x="19.8" y="376.1" class="st0" width="14" height="66.3"/>
		<polygon class="st0" points="285.5,442.3 271.4,442.3 271.4,387.7 253.4,387.7 253.4,376.1 303.5,376.1 303.5,387.7 285.5,387.7 
					"/>
		<path class="st0" d="M367.7,376.1v42.9c0,4.9-1.1,9.2-3.3,12.9c-2.2,3.6-5.4,6.5-9.5,8.4c-4.1,2-9,2.9-14.7,2.9
			c-8.5,0-15.2-2.1-19.9-6.5c-4.7-4.4-7.1-10.3-7.1-17.9v-42.7h14v40.5c0,5.2,1.1,8.9,3.1,11.2c2,2.4,5.4,3.6,10.2,3.6
			c4.6,0,8-1.2,10-3.6c2.1-2.3,3.1-6.1,3.1-11.3v-40.4H367.7z"/>
		<polygon class="st0" points="410.1,442.3 396,442.3 396,387.7 378,387.7 378,376.1 428.1,376.1 428.1,387.7 410.1,387.7 		"/>
		<path class="st0" d="M498.2,409c0,11-2.7,19.4-8.2,25.3c-5.4,5.9-13.2,8.8-23.4,8.8c-10.2,0-18-2.9-23.4-8.8
			c-5.4-5.9-8.2-14.3-8.2-25.3c0-11,2.7-19.4,8.2-25.2c5.4-5.8,13.3-8.7,23.5-8.7c10.2,0,18,3,23.4,8.8
			C495.5,389.6,498.2,398.1,498.2,409 M449.8,409c0,7.4,1.5,13,4.2,16.7c2.8,3.8,7,5.6,12.6,5.6c11.2,0,16.8-7.4,16.8-22.3
			c0-14.9-5.6-22.4-16.8-22.4c-5.6,0-9.8,1.9-12.7,5.7C451.2,396.1,449.8,401.7,449.8,409"/>
		<polygon class="st0" points="77.2,521.8 63.4,521.8 63.4,455.6 101.4,455.6 101.4,467.1 77.2,467.1 77.2,484.2 99.7,484.2 
			99.7,495.7 77.2,495.7 		"/>
		<polygon class="st0" points="152.7,521.8 114.5,521.8 114.5,455.6 152.7,455.6 152.7,467.1 128.6,467.1 128.6,481.6 151,481.6 
			151,493.2 128.6,493.2 128.6,510.3 152.7,510.3 		"/>
		<path class="st0" d="M221.6,488.1c0,10.9-3.1,19.3-9.3,25c-6.2,5.8-15.2,8.7-27,8.7h-18.8v-66.2h20.8c10.8,0,19.2,2.9,25.2,8.6
			C218.6,469.9,221.6,477.9,221.6,488.1 M206.9,488.5c0-14.3-6.3-21.3-18.9-21.3h-7.5v43.1h6C200.2,510.3,206.9,503,206.9,488.5"/>
		<polygon class="st0" points="273.5,521.8 235.3,521.8 235.3,455.6 273.5,455.6 273.5,467.1 249.4,467.1 249.4,481.6 271.9,481.6 
			271.9,493.2 249.4,493.2 249.4,510.3 273.5,510.3 		"/>
		<path class="st0" d="M301.4,496.5v25.4h-14v-66.2h19.3c9,0,15.7,1.7,20,5c4.4,3.2,6.5,8.2,6.5,14.9c0,3.8-1.1,7.4-3.2,10.3
			c-2.2,3.1-5.3,5.5-9.1,7.1c10,14.9,16.5,24.5,19.6,28.9h-15.7L309,496.5H301.4z M301.4,485.1h4.6c4.4,0,7.7-0.8,9.8-2.2
			c2.2-1.6,3.2-3.8,3.2-7c0-3.1-1.1-5.3-3.2-6.7c-2.2-1.4-5.5-2-10-2h-4.3V485.1z"/>
		<path class="st0" d="M389.9,521.8l-4.8-15.7h-24.2l-4.8,15.7h-15.2l23.4-66.4h17.2l23.5,66.4H389.9z M381.7,494.3
			c-4.5-14.2-6.9-22.3-7.5-24.2c-0.6-1.9-1-3.4-1.2-4.4c-1,3.9-3.8,13.4-8.6,28.7H381.7z"/>
		<polygon class="st0" points="413.4,521.8 413.4,455.6 427.5,455.6 427.5,510.3 454.4,510.3 454.4,521.8 		"/>
	</g>
</g>
</svg>
