<svg width="29" height="28" viewBox="0 0 29 28" fill="none" xmlns="http://www.w3.org/2000/svg">
<path d="M19.1667 24.5V22.1667C19.1667 20.929 18.675 19.742 17.7998 18.8668C16.9247 17.9917 15.7377 17.5 14.5 17.5H7.50001C6.26233 17.5 5.07535 17.9917 4.20018 18.8668C3.32501 19.742 2.83334 20.929 2.83334 22.1667V24.5" stroke="#15803D" stroke-width="2" stroke-linecap="round" stroke-linejoin="round"/>
<path d="M11 12.8333C13.5773 12.8333 15.6667 10.744 15.6667 8.16667C15.6667 5.58934 13.5773 3.5 11 3.5C8.42268 3.5 6.33334 5.58934 6.33334 8.16667C6.33334 10.744 8.42268 12.8333 11 12.8333Z" stroke="#15803D" stroke-width="2" stroke-linecap="round" stroke-linejoin="round"/>
<path d="M22.6667 9.33337V16.3334" stroke="#15803D" stroke-width="2" stroke-linecap="round" stroke-linejoin="round"/>
<path d="M26.1667 12.8334H19.1667" stroke="#15803D" stroke-width="2" stroke-linecap="round" stroke-linejoin="round"/>
</svg>
