<svg width="33" height="32" viewBox="0 0 33 32" fill="none" xmlns="http://www.w3.org/2000/svg">
<path d="M20.5 2.66666H8.49998C7.79274 2.66666 7.11446 2.94761 6.61436 3.4477C6.11426 3.9478 5.83331 4.62608 5.83331 5.33332V26.6667C5.83331 27.3739 6.11426 28.0522 6.61436 28.5523C7.11446 29.0524 7.79274 29.3333 8.49998 29.3333H24.5C25.2072 29.3333 25.8855 29.0524 26.3856 28.5523C26.8857 28.0522 27.1666 27.3739 27.1666 26.6667V9.33332L20.5 2.66666Z" stroke="#15803D" stroke-width="2" stroke-linecap="round" stroke-linejoin="round"/>
<path d="M19.1667 2.66666V7.99999C19.1667 8.70723 19.4476 9.38551 19.9477 9.88561C20.4478 10.3857 21.1261 10.6667 21.8334 10.6667H27.1667" stroke="#15803D" stroke-width="2" stroke-linecap="round" stroke-linejoin="round"/>
<path d="M13.8334 12H11.1667" stroke="#15803D" stroke-width="2" stroke-linecap="round" stroke-linejoin="round"/>
<path d="M21.8334 17.3333H11.1667" stroke="#15803D" stroke-width="2" stroke-linecap="round" stroke-linejoin="round"/>
<path d="M21.8334 22.6667H11.1667" stroke="#15803D" stroke-width="2" stroke-linecap="round" stroke-linejoin="round"/>
</svg>
