<svg width="33" height="32" viewBox="0 0 33 32" fill="none" xmlns="http://www.w3.org/2000/svg">
<path d="M21.8333 26.6667V5.33332C21.8333 4.62608 21.5524 3.9478 21.0523 3.4477C20.5522 2.94761 19.8739 2.66666 19.1667 2.66666H13.8333C13.1261 2.66666 12.4478 2.94761 11.9477 3.4477C11.4476 3.9478 11.1667 4.62608 11.1667 5.33332V26.6667" stroke="#15803D" stroke-width="2" stroke-linecap="round" stroke-linejoin="round"/>
<path d="M27.1667 8H5.83333C4.36057 8 3.16666 9.19391 3.16666 10.6667V24C3.16666 25.4728 4.36057 26.6667 5.83333 26.6667H27.1667C28.6394 26.6667 29.8333 25.4728 29.8333 24V10.6667C29.8333 9.19391 28.6394 8 27.1667 8Z" stroke="#15803D" stroke-width="2" stroke-linecap="round" stroke-linejoin="round"/>
</svg>
